<svg width="20" height="25" viewBox="0 0 20 25" fill="none" xmlns="http://www.w3.org/2000/svg">
<path d="M13.5525 4.27126C14.0093 3.74476 14.3576 3.13321 14.5774 2.47173C14.7972 1.81025 14.8842 1.11186 14.8333 0.416672C13.4309 0.529877 12.1291 1.18947 11.2083 2.25334C10.7674 2.76323 10.4333 3.3564 10.2257 3.99774C10.0182 4.63908 9.9414 5.31555 9.99998 5.98709C10.6841 5.99279 11.3603 5.84099 11.9763 5.54346C12.5924 5.24592 13.1317 4.81062 13.5525 4.27126ZM16.5975 13.2613C16.6056 12.3354 16.8495 11.4268 17.3061 10.6213C17.7628 9.8158 18.4172 9.13994 19.2075 8.6575C18.7087 7.93883 18.0493 7.34626 17.2817 6.92678C16.514 6.50729 15.6592 6.27244 14.785 6.24084C12.9 6.0475 11.16 7.34042 10.1571 7.34042C9.15415 7.34042 7.7404 6.265 6.16957 6.28917C5.14264 6.323 4.14201 6.62241 3.26527 7.15819C2.38854 7.69397 1.66563 8.44784 1.16707 9.34626C-0.959599 13.0438 0.623318 18.5417 2.74998 21.5263C3.71665 22.9883 4.92498 24.6438 6.51998 24.5833C8.11498 24.5229 8.63457 23.5925 10.4833 23.5925C12.3321 23.5925 12.9 24.5833 14.4708 24.5471C16.0416 24.5108 17.1533 23.0488 18.1683 21.5867C18.8873 20.5252 19.449 19.3653 19.8358 18.1429C18.8782 17.7345 18.0612 17.0546 17.4857 16.187C16.9102 15.3195 16.6014 14.3023 16.5975 13.2613Z" fill="black"/>
</svg>
