<svg width="26" height="26" viewBox="0 0 26 26" fill="none" xmlns="http://www.w3.org/2000/svg">
<path d="M6.70681 15.4656L5.91141 18.537L3.00421 18.6007C2.13539 16.9338 1.64258 15.0267 1.64258 13C1.64258 11.0403 2.10334 9.19223 2.92008 7.56497H2.92071L5.50893 8.0558L6.64272 10.7169C6.40542 11.4325 6.27608 12.2007 6.27608 13C6.27617 13.8676 6.42809 14.6988 6.70681 15.4656Z" fill="#FBBB00"/>
<path d="M24.2938 10.7922C24.425 11.5071 24.4935 12.2454 24.4935 13C24.4935 13.8461 24.4075 14.6714 24.2436 15.4675C23.6874 18.1766 22.2341 20.5422 20.2209 22.2162L20.2203 22.2156L16.9603 22.0435L16.4989 19.0643C17.8348 18.2539 18.8788 16.9857 19.4287 15.4675H13.3192V10.7922H19.5178H24.2938Z" fill="#518EF8"/>
<path d="M20.2203 22.2156L20.2209 22.2163C18.2629 23.8442 15.7756 24.8182 13.0681 24.8182C8.71699 24.8182 4.93405 22.3026 3.00427 18.6007L6.70687 15.4656C7.67174 18.1293 10.1558 20.0254 13.0681 20.0254C14.3198 20.0254 15.4925 19.6754 16.4988 19.0643L20.2203 22.2156Z" fill="#28B446"/>
<path d="M20.3609 3.90259L16.6596 7.03699C15.6181 6.36364 14.387 5.97465 13.0681 5.97465C10.0899 5.97465 7.55938 7.95775 6.64285 10.7169L2.92079 7.56493H2.92017C4.8217 3.77273 8.65234 1.18182 13.0681 1.18182C15.8403 1.18182 18.3822 2.20327 20.3609 3.90259Z" fill="#F14336"/>
</svg>
