<svg width="27" height="26" viewBox="0 0 27 26" fill="none" xmlns="http://www.w3.org/2000/svg">
<g clip-path="url(#clip0_110_320)">
<path d="M18.375 0H8.625C6.47012 0 4.40349 0.856024 2.87976 2.37976C1.35602 3.90349 0.5 5.97012 0.5 8.125L0.5 17.875C0.5 20.0299 1.35602 22.0965 2.87976 23.6202C4.40349 25.144 6.47012 26 8.625 26H18.375C20.5299 26 22.5965 25.144 24.1202 23.6202C25.644 22.0965 26.5 20.0299 26.5 17.875V8.125C26.5 5.97012 25.644 3.90349 24.1202 2.37976C22.5965 0.856024 20.5299 0 18.375 0ZM24.0625 17.875C24.0625 21.0112 21.5112 23.5625 18.375 23.5625H8.625C5.48875 23.5625 2.9375 21.0112 2.9375 17.875V8.125C2.9375 4.98875 5.48875 2.4375 8.625 2.4375H18.375C21.5112 2.4375 24.0625 4.98875 24.0625 8.125V17.875Z" fill="url(#paint0_linear_110_320)"/>
<path d="M13.5 6.5C11.7761 6.5 10.1228 7.18482 8.90381 8.40381C7.68482 9.62279 7 11.2761 7 13C7 14.7239 7.68482 16.3772 8.90381 17.5962C10.1228 18.8152 11.7761 19.5 13.5 19.5C15.2239 19.5 16.8772 18.8152 18.0962 17.5962C19.3152 16.3772 20 14.7239 20 13C20 11.2761 19.3152 9.62279 18.0962 8.40381C16.8772 7.18482 15.2239 6.5 13.5 6.5ZM13.5 17.0625C12.423 17.0612 11.3904 16.6328 10.6288 15.8712C9.86722 15.1096 9.43879 14.077 9.4375 13C9.4375 10.7591 11.2607 8.9375 13.5 8.9375C15.7393 8.9375 17.5625 10.7591 17.5625 13C17.5625 15.2393 15.7393 17.0625 13.5 17.0625Z" fill="url(#paint1_linear_110_320)"/>
<path d="M20.4875 6.87863C20.9658 6.87863 21.3536 6.49085 21.3536 6.0125C21.3536 5.53415 20.9658 5.14638 20.4875 5.14638C20.0091 5.14638 19.6213 5.53415 19.6213 6.0125C19.6213 6.49085 20.0091 6.87863 20.4875 6.87863Z" fill="url(#paint2_linear_110_320)"/>
</g>
<defs>
<linearGradient id="paint0_linear_110_320" x1="2.879" y1="23.621" x2="24.121" y2="2.379" gradientUnits="userSpaceOnUse">
<stop stop-color="#FFC107"/>
<stop offset="0.507" stop-color="#F44336"/>
<stop offset="0.99" stop-color="#9C27B0"/>
</linearGradient>
<linearGradient id="paint1_linear_110_320" x1="8.9045" y1="17.5955" x2="18.0955" y2="8.4045" gradientUnits="userSpaceOnUse">
<stop stop-color="#FFC107"/>
<stop offset="0.507" stop-color="#F44336"/>
<stop offset="0.99" stop-color="#9C27B0"/>
</linearGradient>
<linearGradient id="paint2_linear_110_320" x1="19.8748" y1="6.62513" x2="21.1001" y2="5.39988" gradientUnits="userSpaceOnUse">
<stop stop-color="#FFC107"/>
<stop offset="0.507" stop-color="#F44336"/>
<stop offset="0.99" stop-color="#9C27B0"/>
</linearGradient>
<clipPath id="clip0_110_320">
<rect width="26" height="26" fill="white" transform="translate(0.5)"/>
</clipPath>
</defs>
</svg>
