<svg width="28" height="28" viewBox="0 0 28 28" fill="none" xmlns="http://www.w3.org/2000/svg">
<mask id="mask0_78_103" style="mask-type:luminance" maskUnits="userSpaceOnUse" x="0" y="0" width="28" height="28">
<path d="M27.5 0H0.5V28H27.5V0Z" fill="white"/>
</mask>
<g mask="url(#mask0_78_103)">
<path d="M24.3359 0H3.66406C1.9166 0 0.5 1.46907 0.5 3.28125V24.7188C0.5 26.5309 1.9166 28 3.66406 28H24.3359C26.0834 28 27.5 26.5309 27.5 24.7188V3.28125C27.5 1.46907 26.0834 0 24.3359 0Z" />
<path d="M19.2684 5.46875H22.0595L15.9617 12.6962L23.1353 22.5312H17.5185L13.1191 16.5664L8.08533 22.5312H5.29254L11.8147 14.8006L4.93311 5.46875H10.6925L14.6691 10.9209L19.2684 5.46875ZM18.2888 20.7987H19.8354L9.85214 7.11025H8.19249L18.2888 20.7987Z" fill="black"/>
</g>
</svg>
