<svg width="20" height="21" viewBox="0 0 20 21" fill="none" xmlns="http://www.w3.org/2000/svg">
<path d="M15.8333 9.76667H4.16667C3.24619 9.76667 2.5 10.5129 2.5 11.4333V17.2667C2.5 18.1871 3.24619 18.9333 4.16667 18.9333H15.8333C16.7538 18.9333 17.5 18.1871 17.5 17.2667V11.4333C17.5 10.5129 16.7538 9.76667 15.8333 9.76667Z" stroke="#929292" stroke-width="1.5" stroke-linecap="round" stroke-linejoin="round"/>
<path d="M5.83331 9.76667V6.43334C5.83331 5.32827 6.2723 4.26846 7.0537 3.48706C7.8351 2.70566 8.89491 2.26667 9.99998 2.26667C11.105 2.26667 12.1649 2.70566 12.9463 3.48706C13.7277 4.26846 14.1666 5.32827 14.1666 6.43334V9.76667" stroke="#929292" stroke-width="1.5" stroke-linecap="round" stroke-linejoin="round"/>
</svg>
